%TF.GenerationSoftware,KiCad,Pcbnew,10.0.3*%
%TF.CreationDate,2026-08-10T15:45:12+05:30*%
%TF.ProjectId,Kibo V1,4b69626f-2056-4312-9e6b-696361645f70,rev?*%
%TF.SameCoordinates,Original*%
%TF.FileFunction,Paste,Top*%
%TF.FilePolarity,Positive*%
%FSLAX46Y46*%
G04 Gerber Fmt 4.6, Leading zero omitted, Abs format (unit mm)*
G04 Created by KiCad (PCBNEW 10.0.3) date 2026-08-10 15:45:12*
%MOMM*%
%LPD*%
G01*
G04 APERTURE LIST*
G04 Aperture macros list*
%AMRoundRect*
0 Rectangle with rounded corners*
0 $1 Rounding radius*
0 $2 $3 $4 $5 $6 $7 $8 $9 X,Y pos of 4 corners*
0 Add a 4 corners polygon primitive as box body*
4,1,4,$2,$3,$4,$5,$6,$7,$8,$9,$2,$3,0*
0 Add four circle primitives for the rounded corners*
1,1,$1+$1,$2,$3*
1,1,$1+$1,$4,$5*
1,1,$1+$1,$6,$7*
1,1,$1+$1,$8,$9*
0 Add four rect primitives between the rounded corners*
20,1,$1+$1,$2,$3,$4,$5,0*
20,1,$1+$1,$4,$5,$6,$7,0*
20,1,$1+$1,$6,$7,$8,$9,0*
20,1,$1+$1,$8,$9,$2,$3,0*%
G04 Aperture macros list end*
%ADD10RoundRect,0.150000X-0.587500X-0.150000X0.587500X-0.150000X0.587500X0.150000X-0.587500X0.150000X0*%
%ADD11RoundRect,0.200000X-0.275000X0.200000X-0.275000X-0.200000X0.275000X-0.200000X0.275000X0.200000X0*%
%ADD12R,1.700000X1.000000*%
%ADD13RoundRect,0.200000X0.275000X-0.200000X0.275000X0.200000X-0.275000X0.200000X-0.275000X-0.200000X0*%
%ADD14RoundRect,0.225000X-0.250000X0.225000X-0.250000X-0.225000X0.250000X-0.225000X0.250000X0.225000X0*%
%ADD15RoundRect,0.150000X0.512500X0.150000X-0.512500X0.150000X-0.512500X-0.150000X0.512500X-0.150000X0*%
%ADD16RoundRect,0.225000X0.250000X-0.225000X0.250000X0.225000X-0.250000X0.225000X-0.250000X-0.225000X0*%
%ADD17RoundRect,0.200000X-0.200000X-0.275000X0.200000X-0.275000X0.200000X0.275000X-0.200000X0.275000X0*%
%ADD18R,1.500000X0.900000*%
%ADD19R,0.900000X1.500000*%
%ADD20R,1.050000X1.050000*%
%ADD21RoundRect,0.225000X0.225000X0.225000X-0.225000X0.225000X-0.225000X-0.225000X0.225000X-0.225000X0*%
%ADD22RoundRect,0.062500X0.337500X0.062500X-0.337500X0.062500X-0.337500X-0.062500X0.337500X-0.062500X0*%
%ADD23RoundRect,0.062500X0.062500X0.337500X-0.062500X0.337500X-0.062500X-0.337500X0.062500X-0.337500X0*%
%ADD24RoundRect,0.075000X0.275000X-0.075000X0.275000X0.075000X-0.275000X0.075000X-0.275000X-0.075000X0*%
G04 APERTURE END LIST*
D10*
%TO.C,Q1*%
X77099860Y-67835574D03*
X77099860Y-69735574D03*
X78974860Y-68785574D03*
%TD*%
D11*
%TO.C,R7*%
X73084573Y-64952639D03*
X73084573Y-66602639D03*
%TD*%
D12*
%TO.C,SW2*%
X61995190Y-67438230D03*
X68295190Y-67438230D03*
X61995190Y-71238230D03*
X68295190Y-71238230D03*
%TD*%
D13*
%TO.C,R2*%
X48725274Y-53348659D03*
X48725274Y-51698659D03*
%TD*%
D14*
%TO.C,C1*%
X48709493Y-46756061D03*
X48709493Y-48306061D03*
%TD*%
D15*
%TO.C,U3*%
X76381535Y-50834041D03*
X76381535Y-49884041D03*
X76381535Y-48934041D03*
X74106535Y-48934041D03*
X74106535Y-50834041D03*
%TD*%
D16*
%TO.C,C4*%
X76051772Y-57279634D03*
X76051772Y-55729634D03*
%TD*%
D11*
%TO.C,R3*%
X77921769Y-63734211D03*
X77921769Y-65384211D03*
%TD*%
D16*
%TO.C,C5*%
X73066409Y-57295027D03*
X73066409Y-55745027D03*
%TD*%
D17*
%TO.C,R4*%
X79375525Y-65446574D03*
X81025525Y-65446574D03*
%TD*%
D13*
%TO.C,R1*%
X50221179Y-53353542D03*
X50221179Y-51703542D03*
%TD*%
D14*
%TO.C,C2*%
X50216990Y-46756797D03*
X50216990Y-48306797D03*
%TD*%
D16*
%TO.C,C8*%
X72417398Y-50661814D03*
X72417398Y-49111814D03*
%TD*%
D12*
%TO.C,SW1*%
X76894582Y-75444385D03*
X70594582Y-75444385D03*
X76894582Y-71644385D03*
X70594582Y-71644385D03*
%TD*%
D11*
%TO.C,R6*%
X76377043Y-64946574D03*
X76377043Y-66596574D03*
%TD*%
D10*
%TO.C,Q2*%
X70520399Y-66877196D03*
X70520399Y-68777196D03*
X72395399Y-67827196D03*
%TD*%
D16*
%TO.C,C7*%
X78064538Y-50672324D03*
X78064538Y-49122324D03*
%TD*%
D14*
%TO.C,C3*%
X77560907Y-55736312D03*
X77560907Y-57286312D03*
%TD*%
D18*
%TO.C,U1*%
X52000000Y-47530000D03*
X52000000Y-48800000D03*
X52000000Y-50070000D03*
X52000000Y-51340000D03*
X52000000Y-52610000D03*
X52000000Y-53880000D03*
X52000000Y-55150000D03*
X52000000Y-56420000D03*
X52000000Y-57690000D03*
X52000000Y-58960000D03*
X52000000Y-60230000D03*
X52000000Y-61500000D03*
X52000000Y-62770000D03*
X52000000Y-64040000D03*
D19*
X55040000Y-65290000D03*
X56310000Y-65290000D03*
X57580000Y-65290000D03*
X58850000Y-65290000D03*
X60120000Y-65290000D03*
X61390000Y-65290000D03*
X62660000Y-65290000D03*
X63930000Y-65290000D03*
X65200000Y-65290000D03*
X66470000Y-65290000D03*
D18*
X69500000Y-64040000D03*
X69500000Y-62770000D03*
X69500000Y-61500000D03*
X69500000Y-60230000D03*
X69500000Y-58960000D03*
X69500000Y-57690000D03*
X69500000Y-56420000D03*
X69500000Y-55150000D03*
X69500000Y-53880000D03*
X69500000Y-52610000D03*
X69500000Y-51340000D03*
X69500000Y-50070000D03*
X69500000Y-48800000D03*
X69500000Y-47530000D03*
D20*
X58545000Y-53345000D03*
X58545000Y-54870000D03*
X58545000Y-56395000D03*
X60070000Y-53345000D03*
X60070000Y-54870000D03*
X60070000Y-56395000D03*
X61595000Y-53345000D03*
X61595000Y-54870000D03*
X61595000Y-56395000D03*
%TD*%
D21*
%TO.C,U2*%
X75343623Y-62275083D03*
X75343623Y-61155083D03*
X75343623Y-60035083D03*
X74223623Y-62275083D03*
X74223623Y-61155083D03*
X74223623Y-60035083D03*
X73103623Y-62275083D03*
X73103623Y-61155083D03*
X73103623Y-60035083D03*
D22*
X76673623Y-62655083D03*
X76673623Y-62155083D03*
X76673623Y-61655083D03*
X76673623Y-61155083D03*
X76673623Y-60655083D03*
X76673623Y-60155083D03*
X76673623Y-59655083D03*
D23*
X75723623Y-58705083D03*
X75223623Y-58705083D03*
X74723623Y-58705083D03*
X74223623Y-58705083D03*
X73723623Y-58705083D03*
X73223623Y-58705083D03*
X72723623Y-58705083D03*
D22*
X71773623Y-59655083D03*
X71773623Y-60155083D03*
X71773623Y-60655083D03*
X71773623Y-61155083D03*
X71773623Y-61655083D03*
X71773623Y-62155083D03*
X71773623Y-62655083D03*
D23*
X72723623Y-63605083D03*
X73223623Y-63605083D03*
X73723623Y-63605083D03*
X74223623Y-63605083D03*
X74723623Y-63605083D03*
X75223623Y-63605083D03*
X75723623Y-63605083D03*
%TD*%
D24*
%TO.C,J1*%
X79588525Y-62037552D03*
X79588525Y-61537552D03*
X79588525Y-61037552D03*
X79588525Y-60537552D03*
X79588525Y-60037552D03*
X79588525Y-59537552D03*
X79588525Y-59037552D03*
X79588525Y-58537552D03*
X79588525Y-58037552D03*
X79588525Y-57537552D03*
X79588525Y-57037552D03*
X79588525Y-56537552D03*
%TD*%
D16*
%TO.C,C6*%
X74566466Y-57286586D03*
X74566466Y-55736586D03*
%TD*%
M02*
