M48
; DRILL file KiCad 10.0.3 date 2026-08-10T15:45:15
; FORMAT={-:-/ absolute / metric / decimal}
; #@! TF.CreationDate,2026-08-10T15:45:15+05:30
; #@! TF.GenerationSoftware,Kicad,Pcbnew,10.0.3
; #@! TF.FileFunction,Plated,1,2,PTH
FMAT,2
METRIC
; #@! TA.AperFunction,Plated,PTH,ComponentDrill
T1C0.200
; #@! TA.AperFunction,Plated,PTH,ViaDrill
T2C0.300
; #@! TA.AperFunction,Plated,PTH,ViaDrill
T3C0.400
; #@! TA.AperFunction,Plated,PTH,ComponentDrill
T4C0.400
; #@! TA.AperFunction,Plated,PTH,ComponentDrill
T5C0.500
%
G90
G05
T1
X58.545Y-54.107
X58.545Y-55.633
X59.307Y-53.345
X59.307Y-54.87
X59.307Y-56.395
X60.07Y-54.107
X60.07Y-55.633
X60.832Y-53.345
X60.832Y-54.87
X60.832Y-56.395
X61.595Y-54.107
X61.595Y-55.633
T2
X78.692Y-58.786
X78.75Y-59.574
T3
X77.127Y-58.743
T4
X80.899Y-56.488
X80.899Y-58.088
X80.899Y-58.888
X80.899Y-59.688
X80.899Y-60.488
X80.899Y-62.088
X81.599Y-56.888
X81.599Y-57.688
X81.599Y-58.488
X81.599Y-60.088
X81.599Y-60.888
X81.599Y-61.688
T5
G00X81.199Y-55.158
M15
G01X81.799Y-55.158
M16
G05
G00X81.199Y-63.418
M15
G01X81.799Y-63.418
M16
G05
G00X87.149Y-54.798
M15
G01X87.749Y-54.798
M16
G05
G00X87.149Y-63.778
M15
G01X87.749Y-63.778
M16
G05
M30
