%TF.GenerationSoftware,KiCad,Pcbnew,10.0.3*%
%TF.CreationDate,2026-08-10T15:45:12+05:30*%
%TF.ProjectId,Kibo V1,4b69626f-2056-4312-9e6b-696361645f70,rev?*%
%TF.SameCoordinates,Original*%
%TF.FileFunction,Copper,L1,Top*%
%TF.FilePolarity,Positive*%
%FSLAX46Y46*%
G04 Gerber Fmt 4.6, Leading zero omitted, Abs format (unit mm)*
G04 Created by KiCad (PCBNEW 10.0.3) date 2026-08-10 15:45:12*
%MOMM*%
%LPD*%
G01*
G04 APERTURE LIST*
G04 Aperture macros list*
%AMRoundRect*
0 Rectangle with rounded corners*
0 $1 Rounding radius*
0 $2 $3 $4 $5 $6 $7 $8 $9 X,Y pos of 4 corners*
0 Add a 4 corners polygon primitive as box body*
4,1,4,$2,$3,$4,$5,$6,$7,$8,$9,$2,$3,0*
0 Add four circle primitives for the rounded corners*
1,1,$1+$1,$2,$3*
1,1,$1+$1,$4,$5*
1,1,$1+$1,$6,$7*
1,1,$1+$1,$8,$9*
0 Add four rect primitives between the rounded corners*
20,1,$1+$1,$2,$3,$4,$5,0*
20,1,$1+$1,$4,$5,$6,$7,0*
20,1,$1+$1,$6,$7,$8,$9,0*
20,1,$1+$1,$8,$9,$2,$3,0*%
G04 Aperture macros list end*
%TA.AperFunction,SMDPad,CuDef*%
%ADD10RoundRect,0.150000X-0.587500X-0.150000X0.587500X-0.150000X0.587500X0.150000X-0.587500X0.150000X0*%
%TD*%
%TA.AperFunction,SMDPad,CuDef*%
%ADD11RoundRect,0.200000X-0.275000X0.200000X-0.275000X-0.200000X0.275000X-0.200000X0.275000X0.200000X0*%
%TD*%
%TA.AperFunction,SMDPad,CuDef*%
%ADD12R,1.700000X1.000000*%
%TD*%
%TA.AperFunction,SMDPad,CuDef*%
%ADD13RoundRect,0.200000X0.275000X-0.200000X0.275000X0.200000X-0.275000X0.200000X-0.275000X-0.200000X0*%
%TD*%
%TA.AperFunction,SMDPad,CuDef*%
%ADD14RoundRect,0.225000X-0.250000X0.225000X-0.250000X-0.225000X0.250000X-0.225000X0.250000X0.225000X0*%
%TD*%
%TA.AperFunction,SMDPad,CuDef*%
%ADD15RoundRect,0.150000X0.512500X0.150000X-0.512500X0.150000X-0.512500X-0.150000X0.512500X-0.150000X0*%
%TD*%
%TA.AperFunction,SMDPad,CuDef*%
%ADD16RoundRect,0.225000X0.250000X-0.225000X0.250000X0.225000X-0.250000X0.225000X-0.250000X-0.225000X0*%
%TD*%
%TA.AperFunction,SMDPad,CuDef*%
%ADD17RoundRect,0.200000X-0.200000X-0.275000X0.200000X-0.275000X0.200000X0.275000X-0.200000X0.275000X0*%
%TD*%
%TA.AperFunction,SMDPad,CuDef*%
%ADD18R,1.500000X0.900000*%
%TD*%
%TA.AperFunction,SMDPad,CuDef*%
%ADD19R,0.900000X1.500000*%
%TD*%
%TA.AperFunction,SMDPad,CuDef*%
%ADD20R,1.050000X1.050000*%
%TD*%
%TA.AperFunction,HeatsinkPad*%
%ADD21C,0.600000*%
%TD*%
%TA.AperFunction,HeatsinkPad*%
%ADD22R,4.200000X4.200000*%
%TD*%
%TA.AperFunction,SMDPad,CuDef*%
%ADD23RoundRect,0.062500X0.337500X0.062500X-0.337500X0.062500X-0.337500X-0.062500X0.337500X-0.062500X0*%
%TD*%
%TA.AperFunction,SMDPad,CuDef*%
%ADD24RoundRect,0.062500X0.062500X0.337500X-0.062500X0.337500X-0.062500X-0.337500X0.062500X-0.337500X0*%
%TD*%
%TA.AperFunction,HeatsinkPad*%
%ADD25R,3.350000X3.350000*%
%TD*%
%TA.AperFunction,SMDPad,CuDef*%
%ADD26RoundRect,0.075000X0.275000X-0.075000X0.275000X0.075000X-0.275000X0.075000X-0.275000X-0.075000X0*%
%TD*%
%TA.AperFunction,ComponentPad*%
%ADD27C,0.650000*%
%TD*%
%TA.AperFunction,ComponentPad*%
%ADD28O,1.400000X0.800000*%
%TD*%
%TA.AperFunction,ViaPad*%
%ADD29C,0.800000*%
%TD*%
%TA.AperFunction,ViaPad*%
%ADD30C,0.600000*%
%TD*%
%TA.AperFunction,Conductor*%
%ADD31C,0.200000*%
%TD*%
G04 APERTURE END LIST*
D10*
%TO.P,Q1,1,B_1*%
%TO.N,Net-(Q1-B)*%
X77099860Y-67835574D03*
%TO.P,Q1,2,E_2*%
%TO.N,/ESP32 GND*%
X77099860Y-69735574D03*
%TO.P,Q1,3,C_3*%
%TO.N,/EN*%
X78974860Y-68785574D03*
%TD*%
D11*
%TO.P,R7,1*%
%TO.N,/RTS*%
X73084573Y-64952639D03*
%TO.P,R7,2*%
%TO.N,Net-(Q2-B)*%
X73084573Y-66602639D03*
%TD*%
D12*
%TO.P,SW2,1,1_1*%
%TO.N,/GPIO0*%
X61995190Y-67438230D03*
X68295190Y-67438230D03*
%TO.P,SW2,2,2_2*%
%TO.N,/ESP32 GND*%
X61995190Y-71238230D03*
X68295190Y-71238230D03*
%TD*%
D13*
%TO.P,R2,1*%
%TO.N,/GPIO0*%
X48725274Y-53348659D03*
%TO.P,R2,2*%
%TO.N,+3.3V*%
X48725274Y-51698659D03*
%TD*%
D14*
%TO.P,C1,1*%
%TO.N,/ESP32 GND*%
X48709493Y-46756061D03*
%TO.P,C1,2*%
%TO.N,+3.3V*%
X48709493Y-48306061D03*
%TD*%
D15*
%TO.P,U3,1,IN_1*%
%TO.N,/Power Management/+5V*%
X76381535Y-50834041D03*
%TO.P,U3,2,GND_2*%
%TO.N,Net-(U3-GND)*%
X76381535Y-49884041D03*
%TO.P,U3,3,EN_3*%
%TO.N,/Power Management/+5V*%
X76381535Y-48934041D03*
%TO.P,U3,4,NC_4*%
%TO.N,unconnected-(U3-NC-Pad4)*%
X74106535Y-48934041D03*
%TO.P,U3,5,OUT_5*%
%TO.N,/Power Management/+3.3V*%
X74106535Y-50834041D03*
%TD*%
D16*
%TO.P,C4,1*%
%TO.N,/VDD*%
X76051772Y-57279634D03*
%TO.P,C4,2*%
%TO.N,Net-(C3-Pad2)*%
X76051772Y-55729634D03*
%TD*%
D11*
%TO.P,R3,1*%
%TO.N,Net-(J1-CC1)*%
X77921769Y-63734211D03*
%TO.P,R3,2*%
%TO.N,GND*%
X77921769Y-65384211D03*
%TD*%
D16*
%TO.P,C5,1*%
%TO.N,+5V (USB VBUS)*%
X73066409Y-57295027D03*
%TO.P,C5,2*%
%TO.N,GND*%
X73066409Y-55745027D03*
%TD*%
D17*
%TO.P,R4,1*%
%TO.N,GND*%
X79375525Y-65446574D03*
%TO.P,R4,2*%
%TO.N,Net-(J1-CC2)*%
X81025525Y-65446574D03*
%TD*%
D13*
%TO.P,R1,1*%
%TO.N,/EN*%
X50221179Y-53353542D03*
%TO.P,R1,2*%
%TO.N,+3.3V*%
X50221179Y-51703542D03*
%TD*%
D14*
%TO.P,C2,1*%
%TO.N,/ESP32 GND*%
X50216990Y-46756797D03*
%TO.P,C2,2*%
%TO.N,+3.3V*%
X50216990Y-48306797D03*
%TD*%
D16*
%TO.P,C8,1*%
%TO.N,/Power Management/+3.3V*%
X72417398Y-50661814D03*
%TO.P,C8,2*%
%TO.N,Net-(U3-GND)*%
X72417398Y-49111814D03*
%TD*%
D12*
%TO.P,SW1,1,1_1*%
%TO.N,/ESP32 GND*%
X76894582Y-75444385D03*
X70594582Y-75444385D03*
%TO.P,SW1,2,2_2*%
%TO.N,/EN*%
X76894582Y-71644385D03*
X70594582Y-71644385D03*
%TD*%
D11*
%TO.P,R6,1*%
%TO.N,/DTR*%
X76377043Y-64946574D03*
%TO.P,R6,2*%
%TO.N,Net-(Q1-B)*%
X76377043Y-66596574D03*
%TD*%
D10*
%TO.P,Q2,1,B_1*%
%TO.N,Net-(Q2-B)*%
X70520399Y-66877196D03*
%TO.P,Q2,2,E_2*%
%TO.N,/ESP32 GND*%
X70520399Y-68777196D03*
%TO.P,Q2,3,C_3*%
%TO.N,/GPIO0*%
X72395399Y-67827196D03*
%TD*%
D16*
%TO.P,C7,1*%
%TO.N,Net-(U3-GND)*%
X78064538Y-50672324D03*
%TO.P,C7,2*%
%TO.N,/Power Management/+5V*%
X78064538Y-49122324D03*
%TD*%
D14*
%TO.P,C3,1*%
%TO.N,/VDD*%
X77560907Y-55736312D03*
%TO.P,C3,2*%
%TO.N,Net-(C3-Pad2)*%
X77560907Y-57286312D03*
%TD*%
D18*
%TO.P,U1,1,GND_1*%
%TO.N,/ESP32 GND*%
X52000000Y-47530000D03*
%TO.P,U1,2,VDD_2*%
%TO.N,+3.3V*%
X52000000Y-48800000D03*
%TO.P,U1,3,EN_3*%
%TO.N,/EN*%
X52000000Y-50070000D03*
%TO.P,U1,4,SENSOR_VP_4*%
%TO.N,unconnected-(U1-SENSOR_VP-Pad4)*%
X52000000Y-51340000D03*
%TO.P,U1,5,SENSOR_VN_5*%
%TO.N,unconnected-(U1-SENSOR_VN-Pad5)*%
X52000000Y-52610000D03*
%TO.P,U1,6,IO34_6*%
%TO.N,unconnected-(U1-IO34-Pad6)*%
X52000000Y-53880000D03*
%TO.P,U1,7,IO35_7*%
%TO.N,unconnected-(U1-IO35-Pad7)*%
X52000000Y-55150000D03*
%TO.P,U1,8,IO32_8*%
%TO.N,unconnected-(U1-IO32-Pad8)*%
X52000000Y-56420000D03*
%TO.P,U1,9,IO33_9*%
%TO.N,unconnected-(U1-IO33-Pad9)*%
X52000000Y-57690000D03*
%TO.P,U1,10,IO25_10*%
%TO.N,unconnected-(U1-IO25-Pad10)*%
X52000000Y-58960000D03*
%TO.P,U1,11,IO26_11*%
%TO.N,unconnected-(U1-IO26-Pad11)*%
X52000000Y-60230000D03*
%TO.P,U1,12,IO27_12*%
%TO.N,unconnected-(U1-IO27-Pad12)*%
X52000000Y-61500000D03*
%TO.P,U1,13,IO14_13*%
%TO.N,unconnected-(U1-IO14-Pad13)*%
X52000000Y-62770000D03*
%TO.P,U1,14,IO12_14*%
%TO.N,unconnected-(U1-IO12-Pad14)*%
X52000000Y-64040000D03*
D19*
%TO.P,U1,15,GND_15*%
%TO.N,/ESP32 GND*%
X55040000Y-65290000D03*
%TO.P,U1,16,IO13_16*%
%TO.N,unconnected-(U1-IO13-Pad16)*%
X56310000Y-65290000D03*
%TO.P,U1,17,SHD/SD2_17*%
%TO.N,unconnected-(U1-SHD{slash}SD2-Pad17)*%
X57580000Y-65290000D03*
%TO.P,U1,18,SWP/SD3_18*%
%TO.N,unconnected-(U1-SWP{slash}SD3-Pad18)*%
X58850000Y-65290000D03*
%TO.P,U1,19,SCS/CMD_19*%
%TO.N,unconnected-(U1-SCS{slash}CMD-Pad19)*%
X60120000Y-65290000D03*
%TO.P,U1,20,SCK/CLK_20*%
%TO.N,unconnected-(U1-SCK{slash}CLK-Pad20)*%
X61390000Y-65290000D03*
%TO.P,U1,21,SDO/SD0_21*%
%TO.N,unconnected-(U1-SDO{slash}SD0-Pad21)*%
X62660000Y-65290000D03*
%TO.P,U1,22,SDI/SD1_22*%
%TO.N,unconnected-(U1-SDI{slash}SD1-Pad22)*%
X63930000Y-65290000D03*
%TO.P,U1,23,IO15_23*%
%TO.N,unconnected-(U1-IO15-Pad23)*%
X65200000Y-65290000D03*
%TO.P,U1,24,IO2_24*%
%TO.N,unconnected-(U1-IO2-Pad24)*%
X66470000Y-65290000D03*
D18*
%TO.P,U1,25,IO0_25*%
%TO.N,/GPIO0*%
X69500000Y-64040000D03*
%TO.P,U1,26,IO4_26*%
%TO.N,unconnected-(U1-IO4-Pad26)*%
X69500000Y-62770000D03*
%TO.P,U1,27,IO16_27*%
%TO.N,unconnected-(U1-IO16-Pad27)*%
X69500000Y-61500000D03*
%TO.P,U1,28,IO17_28*%
%TO.N,unconnected-(U1-IO17-Pad28)*%
X69500000Y-60230000D03*
%TO.P,U1,29,IO5_29*%
%TO.N,unconnected-(U1-IO5-Pad29)*%
X69500000Y-58960000D03*
%TO.P,U1,30,IO18_30*%
%TO.N,unconnected-(U1-IO18-Pad30)*%
X69500000Y-57690000D03*
%TO.P,U1,31,IO19_31*%
%TO.N,unconnected-(U1-IO19-Pad31)*%
X69500000Y-56420000D03*
%TO.P,U1,32,NC_32*%
%TO.N,unconnected-(U1-NC-Pad32)*%
X69500000Y-55150000D03*
%TO.P,U1,33,IO21_33*%
%TO.N,unconnected-(U1-IO21-Pad33)*%
X69500000Y-53880000D03*
%TO.P,U1,34,RXD0/IO3_34*%
%TO.N,/TXD*%
X69500000Y-52610000D03*
%TO.P,U1,35,TXD0/IO1_35*%
%TO.N,/RXD*%
X69500000Y-51340000D03*
%TO.P,U1,36,IO22_36*%
%TO.N,unconnected-(U1-IO22-Pad36)*%
X69500000Y-50070000D03*
%TO.P,U1,37,IO23_37*%
%TO.N,unconnected-(U1-IO23-Pad37)*%
X69500000Y-48800000D03*
%TO.P,U1,38,GND_38*%
%TO.N,/ESP32 GND*%
X69500000Y-47530000D03*
D20*
%TO.P,U1,39,GND_39*%
X58545000Y-53345000D03*
D21*
X58545000Y-54107500D03*
D20*
X58545000Y-54870000D03*
D21*
X58545000Y-55632500D03*
D20*
X58545000Y-56395000D03*
D21*
X59307500Y-53345000D03*
X59307500Y-54870000D03*
X59307500Y-56395000D03*
D20*
X60070000Y-53345000D03*
D21*
X60070000Y-54107500D03*
D20*
X60070000Y-54870000D03*
D22*
X60070000Y-54870000D03*
D21*
X60070000Y-55632500D03*
D20*
X60070000Y-56395000D03*
D21*
X60832500Y-53345000D03*
X60832500Y-54870000D03*
X60832500Y-56395000D03*
D20*
X61595000Y-53345000D03*
D21*
X61595000Y-54107500D03*
D20*
X61595000Y-54870000D03*
D21*
X61595000Y-55632500D03*
D20*
X61595000Y-56395000D03*
%TD*%
D23*
%TO.P,U2,1,~{DCD}_1*%
%TO.N,unconnected-(U2-~{DCD}-Pad1)*%
X76673623Y-62655083D03*
%TO.P,U2,2,~{RI}/CLK_2*%
%TO.N,unconnected-(U2-~{RI}{slash}CLK-Pad2)*%
X76673623Y-62155083D03*
%TO.P,U2,3,GND_3*%
%TO.N,Net-(C3-Pad2)*%
X76673623Y-61655083D03*
%TO.P,U2,4,D+_4*%
%TO.N,/USB D+*%
X76673623Y-61155083D03*
%TO.P,U2,5,D-_5*%
%TO.N,/USB D-*%
X76673623Y-60655083D03*
%TO.P,U2,6,VDD_6*%
%TO.N,/VDD*%
X76673623Y-60155083D03*
%TO.P,U2,7,VREGIN_7*%
%TO.N,+5V (USB VBUS)*%
X76673623Y-59655083D03*
D24*
%TO.P,U2,8,VBUS_8*%
X75723623Y-58705083D03*
%TO.P,U2,9,~{RST}_9*%
%TO.N,unconnected-(U2-~{RST}-Pad9)*%
X75223623Y-58705083D03*
%TO.P,U2,10,NC_10*%
%TO.N,unconnected-(U2-NC-Pad10)*%
X74723623Y-58705083D03*
%TO.P,U2,11,~{SUSPEND}_11*%
%TO.N,unconnected-(U2-~{SUSPEND}-Pad11)*%
X74223623Y-58705083D03*
%TO.P,U2,12,SUSPEND_12*%
%TO.N,unconnected-(U2-SUSPEND-Pad12)*%
X73723623Y-58705083D03*
%TO.P,U2,13,CHREN_13*%
%TO.N,unconnected-(U2-CHREN-Pad13)*%
X73223623Y-58705083D03*
%TO.P,U2,14,CHR1_14*%
%TO.N,unconnected-(U2-CHR1-Pad14)*%
X72723623Y-58705083D03*
D23*
%TO.P,U2,15,CHR0_15*%
%TO.N,unconnected-(U2-CHR0-Pad15)*%
X71773623Y-59655083D03*
%TO.P,U2,16,~{WAKEUP}/GPIO.3_16*%
%TO.N,unconnected-(U2-~{WAKEUP}{slash}GPIO.3-Pad16)*%
X71773623Y-60155083D03*
%TO.P,U2,17,RS485/GPIO.2_17*%
%TO.N,unconnected-(U2-RS485{slash}GPIO.2-Pad17)*%
X71773623Y-60655083D03*
%TO.P,U2,18,~{RXT}/GPIO.1_18*%
%TO.N,unconnected-(U2-~{RXT}{slash}GPIO.1-Pad18)*%
X71773623Y-61155083D03*
%TO.P,U2,19,~{TXT}/GPIO.0_19*%
%TO.N,unconnected-(U2-~{TXT}{slash}GPIO.0-Pad19)*%
X71773623Y-61655083D03*
%TO.P,U2,20,GPIO.6_20*%
%TO.N,unconnected-(U2-GPIO.6-Pad20)*%
X71773623Y-62155083D03*
%TO.P,U2,21,GPIO.5_21*%
%TO.N,unconnected-(U2-GPIO.5-Pad21)*%
X71773623Y-62655083D03*
D24*
%TO.P,U2,22,GPIO.4_22*%
%TO.N,unconnected-(U2-GPIO.4-Pad22)*%
X72723623Y-63605083D03*
%TO.P,U2,23,~{CTS}_23*%
%TO.N,unconnected-(U2-~{CTS}-Pad23)*%
X73223623Y-63605083D03*
%TO.P,U2,24,~{RTS}_24*%
%TO.N,/RTS*%
X73723623Y-63605083D03*
%TO.P,U2,25,RXD_25*%
%TO.N,/RXD*%
X74223623Y-63605083D03*
%TO.P,U2,26,TXD_26*%
%TO.N,/TXD*%
X74723623Y-63605083D03*
%TO.P,U2,27,~{DSR}_27*%
%TO.N,unconnected-(U2-~{DSR}-Pad27)*%
X75223623Y-63605083D03*
%TO.P,U2,28,~{DTR}_28*%
%TO.N,/DTR*%
X75723623Y-63605083D03*
D25*
%TO.P,U2,29,GND_29*%
%TO.N,Net-(C3-Pad2)*%
X74223623Y-61155083D03*
%TD*%
D26*
%TO.P,J1,A1,GND_A1*%
%TO.N,GND*%
X79588525Y-62037552D03*
%TO.P,J1,A2,TX1+_A2*%
%TO.N,unconnected-(J1-TX1+-PadA2)*%
X79588525Y-61537552D03*
%TO.P,J1,A3,TX1-_A3*%
%TO.N,unconnected-(J1-TX1--PadA3)*%
X79588525Y-61037552D03*
%TO.P,J1,A4,VBUS_A4*%
%TO.N,+5V (USB VBUS)*%
X79588525Y-60537552D03*
%TO.P,J1,A5,CC1_A5*%
%TO.N,Net-(J1-CC1)*%
X79588525Y-60037552D03*
%TO.P,J1,A6,D+_A6*%
%TO.N,/USB D+*%
X79588525Y-59537552D03*
%TO.P,J1,A7,D-_A7*%
%TO.N,/USB D-*%
X79588525Y-59037552D03*
%TO.P,J1,A8,SBU1_A8*%
%TO.N,unconnected-(J1-SBU1-PadA8)*%
X79588525Y-58537552D03*
%TO.P,J1,A9,VBUS_A9*%
%TO.N,+5V (USB VBUS)*%
X79588525Y-58037552D03*
%TO.P,J1,A10,RX2-_A10*%
%TO.N,unconnected-(J1-RX2--PadA10)*%
X79588525Y-57537552D03*
%TO.P,J1,A11,RX2+_A11*%
%TO.N,unconnected-(J1-RX2+-PadA11)*%
X79588525Y-57037552D03*
%TO.P,J1,A12,GND_A12*%
%TO.N,GND*%
X79588525Y-56537552D03*
D27*
%TO.P,J1,B1,GND_B1*%
X80898525Y-56487552D03*
%TO.P,J1,B2,TX2+_B2*%
%TO.N,unconnected-(J1-TX2+-PadB2)*%
X81598525Y-56887552D03*
%TO.P,J1,B3,TX2-_B3*%
%TO.N,unconnected-(J1-TX2--PadB3)*%
X81598525Y-57687552D03*
%TO.P,J1,B4,VBUS_B4*%
%TO.N,+5V (USB VBUS)*%
X80898525Y-58087552D03*
%TO.P,J1,B5,CC2_B5*%
%TO.N,Net-(J1-CC2)*%
X81598525Y-58487552D03*
%TO.P,J1,B6,D+_B6*%
%TO.N,/USB D+*%
X80898525Y-58887552D03*
%TO.P,J1,B7,D-_B7*%
%TO.N,/USB D-*%
X80898525Y-59687552D03*
%TO.P,J1,B8,SBU2_B8*%
%TO.N,unconnected-(J1-SBU2-PadB8)*%
X81598525Y-60087552D03*
%TO.P,J1,B9,VBUS_B9*%
%TO.N,+5V (USB VBUS)*%
X80898525Y-60487552D03*
%TO.P,J1,B10,RX1-_B10*%
%TO.N,unconnected-(J1-RX1--PadB10)*%
X81598525Y-60887552D03*
%TO.P,J1,B11,RX1+_B11*%
%TO.N,unconnected-(J1-RX1+-PadB11)*%
X81598525Y-61687552D03*
%TO.P,J1,B12,GND_B12*%
%TO.N,GND*%
X80898525Y-62087552D03*
D28*
%TO.P,J1,SH,SHIELD_SH*%
%TO.N,unconnected-(J1-SHIELD-PadSH)_1*%
X87448525Y-63777552D03*
%TO.N,unconnected-(J1-SHIELD-PadSH)*%
X81498525Y-63417552D03*
%TO.N,unconnected-(J1-SHIELD-PadSH)_3*%
X81498525Y-55157552D03*
%TO.N,unconnected-(J1-SHIELD-PadSH)_2*%
X87448525Y-54797552D03*
%TD*%
D16*
%TO.P,C6,1*%
%TO.N,+5V (USB VBUS)*%
X74566466Y-57286586D03*
%TO.P,C6,2*%
%TO.N,GND*%
X74566466Y-55736586D03*
%TD*%
D29*
%TO.N,+5V (USB VBUS)*%
X77126867Y-58742972D03*
D30*
%TO.N,/USB D+*%
X78750219Y-59574238D03*
%TO.N,/USB D-*%
X78691646Y-58786312D03*
%TD*%
%TO.N,Net-(Q1-B)*%
D31*
X76377043Y-66596574D02*
X76377043Y-67112757D01*
X76377043Y-67112757D02*
X77099860Y-67835574D01*
%TO.N,/ESP32 GND*%
X68875914Y-73725717D02*
X70594582Y-75444385D01*
X71949608Y-75444385D02*
X69045190Y-72539967D01*
X76894582Y-75444385D02*
X71949608Y-75444385D01*
X50990193Y-47530000D02*
X50216990Y-46756797D01*
X70520399Y-68777196D02*
X76141482Y-68777196D01*
X60070000Y-54870000D02*
X52730000Y-47530000D01*
X55040000Y-65720000D02*
X55610000Y-66290000D01*
X48709493Y-46756061D02*
X51756061Y-46756061D01*
X50216990Y-46756797D02*
X48710229Y-46756797D01*
X69045190Y-72539967D02*
X69045190Y-70252405D01*
X70594582Y-75444385D02*
X76894582Y-75444385D01*
X51756061Y-46756061D02*
X55040000Y-50040000D01*
X48710229Y-46756797D02*
X48709493Y-46756061D01*
X52000000Y-47530000D02*
X50990193Y-47530000D01*
X69045190Y-70252405D02*
X70520399Y-68777196D01*
X52730000Y-47530000D02*
X52000000Y-47530000D01*
X55610000Y-66290000D02*
X57046960Y-66290000D01*
X65885000Y-47530000D02*
X60070000Y-53345000D01*
X69500000Y-47530000D02*
X65885000Y-47530000D01*
X55040000Y-65290000D02*
X55040000Y-65720000D01*
X61995190Y-71238230D02*
X68295190Y-71238230D01*
X68875914Y-71818954D02*
X68875914Y-73725717D01*
X57046960Y-66290000D02*
X61995190Y-71238230D01*
X55040000Y-50040000D02*
X55040000Y-65290000D01*
X76141482Y-68777196D02*
X77099860Y-69735574D01*
X68295190Y-71238230D02*
X68875914Y-71818954D01*
%TO.N,/EN*%
X65919360Y-72344385D02*
X68066716Y-72344385D01*
X77244582Y-71644385D02*
X78974860Y-69914107D01*
X52000000Y-50070000D02*
X51570000Y-50070000D01*
X78137527Y-74342355D02*
X77594582Y-74342355D01*
X48000274Y-52956721D02*
X48000274Y-53740597D01*
X50221179Y-53353542D02*
X50221179Y-63961179D01*
X51000000Y-50640000D02*
X51000000Y-52574721D01*
X49192212Y-52698659D02*
X48258336Y-52698659D01*
X77594582Y-73892355D02*
X73514759Y-69812532D01*
X76894582Y-71644385D02*
X77244582Y-71644385D01*
X75062729Y-69812532D02*
X72776435Y-69812532D01*
X78139557Y-76544385D02*
X78344582Y-76339360D01*
X78974860Y-69914107D02*
X78974860Y-68785574D01*
X51570000Y-50070000D02*
X51000000Y-50640000D01*
X48000274Y-53740597D02*
X48258336Y-53998659D01*
X65913205Y-72338230D02*
X65919360Y-72344385D01*
X48375274Y-63105223D02*
X55545077Y-70275025D01*
X70944582Y-71644385D02*
X70594582Y-71644385D01*
X51000000Y-52574721D02*
X50221179Y-53353542D01*
X68066716Y-72344385D02*
X68066716Y-75261494D01*
X49075274Y-53998659D02*
X49192212Y-53998659D01*
X48258336Y-53998659D02*
X48375274Y-53998659D01*
X76894582Y-71644385D02*
X75062729Y-69812532D01*
X49075274Y-62815274D02*
X49075274Y-53998659D01*
X78344582Y-74549410D02*
X78137527Y-74342355D01*
X72776435Y-69812532D02*
X70944582Y-71644385D01*
X78344582Y-76339360D02*
X78344582Y-74549410D01*
X49450274Y-53740597D02*
X49450274Y-52956721D01*
X69349607Y-76544385D02*
X78139557Y-76544385D01*
X68066716Y-75261494D02*
X69349607Y-76544385D01*
X77594582Y-74342355D02*
X77594582Y-73892355D01*
X55545077Y-70275025D02*
X58687010Y-70275025D01*
X48258336Y-52698659D02*
X48000274Y-52956721D01*
X58687010Y-70275025D02*
X60750216Y-72338230D01*
X48375274Y-53998659D02*
X48375274Y-63105223D01*
X49450274Y-52956721D02*
X49192212Y-52698659D01*
X60750216Y-72338230D02*
X65913205Y-72338230D01*
X49192212Y-53998659D02*
X49450274Y-53740597D01*
X50221179Y-63961179D02*
X49075274Y-62815274D01*
%TO.N,/RTS*%
X73084573Y-64952639D02*
X73723623Y-64313589D01*
X73723623Y-64313589D02*
X73723623Y-63605083D01*
%TO.N,Net-(Q2-B)*%
X73084573Y-66602639D02*
X70794956Y-66602639D01*
X70794956Y-66602639D02*
X70520399Y-66877196D01*
%TO.N,/GPIO0*%
X68069492Y-69162532D02*
X66345190Y-67438230D01*
X77857202Y-69185574D02*
X77044834Y-69185574D01*
X56345190Y-67438230D02*
X60895190Y-71988230D01*
X70767810Y-69837127D02*
X71477741Y-69127196D01*
X77857202Y-70285574D02*
X78087360Y-70055416D01*
X68525914Y-72308609D02*
X68525914Y-75225717D01*
X77994582Y-76194385D02*
X77994582Y-74694385D01*
X71694582Y-74694385D02*
X69395190Y-72394993D01*
X72395399Y-67827196D02*
X70163057Y-67827196D01*
X69515173Y-68227196D02*
X68579837Y-69162532D01*
X68525914Y-75225717D02*
X69494582Y-76194385D01*
X68295190Y-67438230D02*
X68684156Y-67827196D01*
X48725274Y-53348659D02*
X48725274Y-62960248D01*
X53203256Y-67438230D02*
X56345190Y-67438230D01*
X66345190Y-67438230D02*
X61995190Y-67438230D01*
X61995190Y-67438230D02*
X68295190Y-67438230D01*
X70163057Y-67827196D02*
X69500000Y-67164139D01*
X75184140Y-69127196D02*
X76342518Y-70285574D01*
X69494582Y-76194385D02*
X77994582Y-76194385D01*
X68205535Y-71988230D02*
X68525914Y-72308609D01*
X78087360Y-70055416D02*
X78087360Y-69415732D01*
X76342518Y-70285574D02*
X77857202Y-70285574D01*
X69955442Y-69837127D02*
X70767810Y-69837127D01*
X48725274Y-62960248D02*
X53203256Y-67438230D01*
X71477741Y-69127196D02*
X75184140Y-69127196D01*
X76086456Y-68227196D02*
X69515173Y-68227196D01*
X69395190Y-72394993D02*
X69395190Y-70397379D01*
X77044834Y-69185574D02*
X76086456Y-68227196D01*
X68579837Y-69162532D02*
X68069492Y-69162532D01*
X68684156Y-67827196D02*
X72395399Y-67827196D01*
X77994582Y-74694385D02*
X71694582Y-74694385D01*
X78087360Y-69415732D02*
X77857202Y-69185574D01*
X69500000Y-67164139D02*
X69500000Y-64040000D01*
X69395190Y-70397379D02*
X69955442Y-69837127D01*
X60895190Y-71988230D02*
X68205535Y-71988230D01*
%TO.N,+3.3V*%
X50216990Y-48306797D02*
X51506797Y-48306797D01*
X50216254Y-48306061D02*
X50216990Y-48306797D01*
X48725274Y-48321842D02*
X48709493Y-48306061D01*
X48730157Y-51703542D02*
X48725274Y-51698659D01*
X51506797Y-48306797D02*
X52000000Y-48800000D01*
X48725274Y-51698659D02*
X48725274Y-48321842D01*
X50221179Y-51703542D02*
X48730157Y-51703542D01*
X48709493Y-48306061D02*
X50216254Y-48306061D01*
%TO.N,/Power Management/+5V*%
X78789538Y-51100310D02*
X78789538Y-49847324D01*
X76919818Y-51372324D02*
X78517524Y-51372324D01*
X78789538Y-49847324D02*
X78064538Y-49122324D01*
X78517524Y-51372324D02*
X78789538Y-51100310D01*
X76381535Y-50834041D02*
X76919818Y-51372324D01*
X77876255Y-48934041D02*
X78064538Y-49122324D01*
X76381535Y-48934041D02*
X77876255Y-48934041D01*
%TO.N,Net-(U3-GND)*%
X72417398Y-49111814D02*
X73189625Y-49884041D01*
X76381535Y-49884041D02*
X77276255Y-49884041D01*
X73189625Y-49884041D02*
X76381535Y-49884041D01*
X77276255Y-49884041D02*
X78064538Y-50672324D01*
%TO.N,/Power Management/+3.3V*%
X72589625Y-50834041D02*
X72417398Y-50661814D01*
X74106535Y-50834041D02*
X72589625Y-50834041D01*
%TO.N,/VDD*%
X78013893Y-57986312D02*
X76758450Y-57986312D01*
X78285907Y-57714298D02*
X78013893Y-57986312D01*
X77560907Y-55736312D02*
X78285907Y-56461312D01*
X77750219Y-59492873D02*
X77063009Y-60180083D01*
X76758450Y-57986312D02*
X76051772Y-57279634D01*
X77750219Y-59160025D02*
X77750219Y-59492873D01*
X77063009Y-60180083D02*
X76673623Y-60180083D01*
X77941646Y-58475651D02*
X77941646Y-58968597D01*
X76808450Y-58036312D02*
X77502307Y-58036312D01*
X77941646Y-58968597D02*
X77750219Y-59160025D01*
X77502307Y-58036312D02*
X77941646Y-58475651D01*
X78285907Y-56461312D02*
X78285907Y-57714298D01*
X76051772Y-57279634D02*
X76808450Y-58036312D01*
%TO.N,Net-(C3-Pad2)*%
X72291409Y-59116543D02*
X74829949Y-61655083D01*
X77560907Y-57238769D02*
X76051772Y-55729634D01*
X74829949Y-61655083D02*
X76673623Y-61655083D01*
X77560907Y-57286312D02*
X77560907Y-57238769D01*
X76051772Y-55729634D02*
X75336379Y-56445027D01*
X72692713Y-56445027D02*
X72291409Y-56846331D01*
X75336379Y-56445027D02*
X72692713Y-56445027D01*
X72291409Y-56846331D02*
X72291409Y-59116543D01*
%TO.N,Net-(J1-CC1)*%
X77921769Y-61321898D02*
X79206115Y-60037552D01*
X79206115Y-60037552D02*
X79588525Y-60037552D01*
X77921769Y-63734211D02*
X77921769Y-61321898D01*
%TO.N,GND*%
X73066409Y-55745027D02*
X74558025Y-55745027D01*
X81185352Y-56487552D02*
X80906673Y-56487552D01*
X80906673Y-56487552D02*
X80902599Y-56491626D01*
X75290520Y-55012532D02*
X78063505Y-55012532D01*
X79323525Y-56272552D02*
X79323525Y-55154404D01*
X74558025Y-55745027D02*
X74566466Y-55736586D01*
X79375525Y-65446574D02*
X77984132Y-65446574D01*
X74566466Y-55736586D02*
X75290520Y-55012532D01*
X82448525Y-54888313D02*
X82448525Y-55588838D01*
X79375525Y-62250552D02*
X79588525Y-62037552D01*
X82448525Y-55588838D02*
X81724811Y-56312552D01*
X77984132Y-65446574D02*
X77921769Y-65384211D01*
X82067764Y-54507552D02*
X82448525Y-54888313D01*
X79375525Y-65446574D02*
X79375525Y-62250552D01*
X79588525Y-62037552D02*
X80848525Y-62037552D01*
X79970377Y-54507552D02*
X82067764Y-54507552D01*
X81724811Y-56312552D02*
X81360352Y-56312552D01*
X80848525Y-62037552D02*
X80898525Y-62087552D01*
X79323525Y-55154404D02*
X79970377Y-54507552D01*
X79588525Y-56537552D02*
X79323525Y-56272552D01*
X78063505Y-55012532D02*
X79588525Y-56537552D01*
X81360352Y-56312552D02*
X81185352Y-56487552D01*
%TO.N,+5V (USB VBUS)*%
X80438906Y-58087552D02*
X80898525Y-58087552D01*
X80438906Y-60487552D02*
X80273525Y-60322171D01*
X75723623Y-58705083D02*
X76673623Y-59655083D01*
X80273525Y-58252933D02*
X80438906Y-58087552D01*
X74558025Y-57295027D02*
X74566466Y-57286586D01*
X76673623Y-59655083D02*
X77126867Y-59201839D01*
X80848525Y-60537552D02*
X80898525Y-60487552D01*
X75723623Y-58290697D02*
X75723623Y-58705083D01*
X79588525Y-60537552D02*
X80848525Y-60537552D01*
X80848525Y-58037552D02*
X80898525Y-58087552D01*
X77126867Y-59201839D02*
X77126867Y-58742972D01*
X80273525Y-60322171D02*
X80273525Y-58252933D01*
X73066409Y-57295027D02*
X74558025Y-57295027D01*
X74566466Y-57286586D02*
X74719512Y-57286586D01*
X80898525Y-60487552D02*
X80438906Y-60487552D01*
X79588525Y-58037552D02*
X80848525Y-58037552D01*
X74719512Y-57286586D02*
X75723623Y-58290697D01*
%TO.N,Net-(J1-CC2)*%
X81025525Y-65446574D02*
X82448525Y-64023574D01*
X82448525Y-59337552D02*
X81598525Y-58487552D01*
X82448525Y-64023574D02*
X82448525Y-59337552D01*
%TO.N,/DTR*%
X75723623Y-63605083D02*
X75723623Y-64293154D01*
X75723623Y-64293154D02*
X76377043Y-64946574D01*
%TO.N,/TXD*%
X69500000Y-52610000D02*
X69070000Y-52610000D01*
X70500000Y-53180000D02*
X70500000Y-63979978D01*
X70500000Y-63979978D02*
X72472661Y-65952639D01*
X72472661Y-65952639D02*
X73696486Y-65952639D01*
X69070000Y-52610000D02*
X68500000Y-53180000D01*
X73871486Y-67658451D02*
X74723623Y-66806314D01*
X68500000Y-53180000D02*
X70500000Y-53180000D01*
X74723623Y-66806314D02*
X74723623Y-63605083D01*
X73696486Y-65952639D02*
X73871486Y-66127639D01*
X73871486Y-66127639D02*
X73871486Y-67658451D01*
%TO.N,/RXD*%
X69500000Y-51340000D02*
X69800000Y-51340000D01*
X72617635Y-65602639D02*
X73551511Y-65602639D01*
X73551511Y-65602639D02*
X74223623Y-64930527D01*
X71123623Y-64108627D02*
X72617635Y-65602639D01*
X69800000Y-51340000D02*
X71123623Y-52663623D01*
X71123623Y-52663623D02*
X71123623Y-64108627D01*
X74223623Y-64930527D02*
X74223623Y-63605083D01*
%TO.N,/USB D+*%
X78786905Y-59537552D02*
X78750219Y-59574238D01*
X76673623Y-61155083D02*
X77169374Y-61155083D01*
X79588525Y-59537552D02*
X78786905Y-59537552D01*
X77169374Y-61155083D02*
X78750219Y-59574238D01*
%TO.N,/USB D-*%
X77082983Y-60655083D02*
X78100219Y-59637847D01*
X76673623Y-60655083D02*
X77082983Y-60655083D01*
X79588525Y-59037552D02*
X78942886Y-59037552D01*
X78942886Y-59037552D02*
X78691646Y-58786312D01*
X78100219Y-59377739D02*
X78691646Y-58786312D01*
X78100219Y-59637847D02*
X78100219Y-59377739D01*
%TD*%
M02*
